<?xml version="1.0" encoding="UTF-8" standalone="no"?>
<!DOCTYPE svg PUBLIC "-//W3C//DTD SVG 20010904//EN"
              "http://www.w3.org/TR/2001/REC-SVG-20010904/DTD/svg10.dtd">

<svg xmlns="http://www.w3.org/2000/svg"
     width="112.875mm" height="88.8889mm"
     viewBox="0 0 320 252">
  <path id="Selection"
        d="M 65.23,121.00
           C 65.00,125.18 64.77,132.15 65.23,136.00
             68.01,150.13 78.58,164.84 94.00,165.90
             115.68,167.39 128.07,142.39 136.25,126.00
             151.67,95.08 159.31,61.02 197.00,49.72
             202.19,48.17 208.59,47.07 214.00,47.00
             214.00,47.00 221.00,47.00 221.00,47.00
             253.78,47.05 277.52,72.54 284.50,103.00
             285.49,107.33 286.95,120.56 287.05,125.00
             287.02,127.73 286.20,134.96 287.05,136.82
             288.36,139.37 297.11,144.80 300.00,147.30
             305.84,152.36 311.63,160.81 314.55,168.00
             326.04,196.35 316.59,229.63 289.00,244.69
             277.43,251.00 268.86,252.15 256.00,252.00
             247.78,251.90 240.39,249.72 233.00,246.22
             198.09,229.68 188.05,183.90 212.31,154.00
             218.23,146.72 227.30,140.00 236.00,136.45
             246.05,132.36 250.62,134.65 250.98,126.00
             251.69,108.80 243.25,89.57 225.00,85.67
             218.10,84.19 212.12,85.18 206.00,88.68
             190.75,97.40 183.14,115.62 176.58,131.00
             167.01,153.43 154.76,181.49 134.00,195.48
             108.90,212.40 73.67,209.33 52.17,187.83
             38.10,173.76 29.24,150.84 28.96,131.00
             28.96,131.00 28.96,120.00 28.96,120.00
             28.96,120.00 28.96,114.46 28.96,114.46
             28.09,111.68 24.21,109.49 22.00,107.72
             18.06,104.54 14.56,101.11 11.59,97.00
             2.41,84.30 -0.18,72.30 0.00,57.00
             0.08,50.66 1.27,45.95 3.34,40.00
             15.10,6.34 54.26,-8.72 86.00,6.32
             105.12,15.38 119.74,35.45 120.00,57.00
             120.00,57.00 120.00,64.00 120.00,64.00
             119.90,72.10 117.81,79.77 114.24,87.00
             103.98,107.84 87.66,117.94 65.23,121.00 Z
           M 57.00,27.29
           C 50.00,28.45 43.49,30.44 38.01,35.21
             14.40,55.77 29.12,98.16 65.00,93.82
             68.70,93.37 73.76,91.49 77.00,89.64
             107.32,72.37 93.00,24.20 57.00,27.29 Z
           M 252.00,159.32
           C 222.64,165.99 215.69,205.24 243.00,221.52
             247.48,224.19 252.85,225.14 258.00,225.49
             286.59,227.44 303.29,192.83 285.62,171.00
             276.63,159.89 265.46,157.85 252.00,159.32 Z" />
</svg>
